<?xml version="1.0" encoding="UTF-8" standalone="no"?>
<svg
   id="Isolation_Mode"
   data-name="Isolation Mode"
   viewBox="0 0 24 24"
   width="512"
   height="512"
   version="1.1"
   sodipodi:docname="refresh.svg"
   inkscape:version="1.2 (dc2aedaf03, 2022-05-15)"
   xmlns:inkscape="http://www.inkscape.org/namespaces/inkscape"
   xmlns:sodipodi="http://sodipodi.sourceforge.net/DTD/sodipodi-0.dtd"
   xmlns="http://www.w3.org/2000/svg"
   xmlns:svg="http://www.w3.org/2000/svg">
  <defs
     id="defs9" />
  <sodipodi:namedview
     id="namedview7"
     pagecolor="#ffffff"
     bordercolor="#000000"
     borderopacity="0.25"
     inkscape:showpageshadow="2"
     inkscape:pageopacity="0.0"
     inkscape:pagecheckerboard="0"
     inkscape:deskcolor="#d1d1d1"
     showgrid="false"
     inkscape:zoom="1"
     inkscape:cx="190.5"
     inkscape:cy="256.5"
     inkscape:window-width="1920"
     inkscape:window-height="992"
     inkscape:window-x="-8"
     inkscape:window-y="-8"
     inkscape:window-maximized="1"
     inkscape:current-layer="Isolation_Mode" />
  <path
     d="M12,2.99a9.03,9.03,0,0,1,6.36,2.65L15.986,8.014h5.83a1.146,1.146,0,0,0,1.146-1.146V1.038L20.471,3.529A11.98,11.98,0,0,0,0,12H2.99A9.02,9.02,0,0,1,12,2.99Z"
     id="path2"
     style="fill:#ffffff" />
  <path
     d="M21.01,12A8.994,8.994,0,0,1,5.64,18.36l2.374-2.374H1.993a.956.956,0,0,0-.955.955v6.021l2.491-2.491A11.98,11.98,0,0,0,24,12Z"
     id="path4"
     style="fill:#ffffff" />
</svg>
