<?xml version="1.0"?>
<svg xmlns="http://www.w3.org/2000/svg" xmlns:xlink="http://www.w3.org/1999/xlink" xmlns:svgjs="http://svgjs.com/svgjs" version="1.1" width="512px" height="512px" x="0" y="0" viewBox="0 0 24 24" style="enable-background:new 0 0 512 512" xml:space="preserve"><g><path d="M12,2.99a9.03,9.03,0,0,1,6.36,2.65L15.986,8.014h5.83a1.146,1.146,0,0,0,1.146-1.146V1.038L20.471,3.529A11.98,11.98,0,0,0,0,12H2.99A9.02,9.02,0,0,1,12,2.99Z" fill="#8fc570" data-original="#000000"/><path d="M21.01,12A8.994,8.994,0,0,1,5.64,18.36l2.374-2.374H1.993a.956.956,0,0,0-.955.955v6.021l2.491-2.491A11.98,11.98,0,0,0,24,12Z" fill="#8fc570" data-original="#000000"/></g></svg>
